<svg id="visual" viewBox="0 0 950 300" width="950" height="300" xmlns="http://www.w3.org/2000/svg" xmlns:xlink="http://www.w3.org/1999/xlink" version="1.1"><rect x="0" y="0" width="950" height="300" fill="#001220"></rect><path d="M0 181L12.2 196.2C24.3 211.3 48.7 241.7 73 249.5C97.3 257.3 121.7 242.7 146 229.5C170.3 216.3 194.7 204.7 219 199.8C243.3 195 267.7 197 292 208.3C316.3 219.7 340.7 240.3 365 244.8C389.3 249.3 413.7 237.7 438.2 219.3C462.7 201 487.3 176 511.8 167.3C536.3 158.7 560.7 166.3 585 185.3C609.3 204.3 633.7 234.7 658 234.5C682.3 234.3 706.7 203.7 731 190.7C755.3 177.7 779.7 182.3 804 188C828.3 193.7 852.7 200.3 877 215.8C901.3 231.3 925.7 255.7 937.8 267.8L950 280L950 301L937.8 301C925.7 301 901.3 301 877 301C852.7 301 828.3 301 804 301C779.7 301 755.3 301 731 301C706.7 301 682.3 301 658 301C633.7 301 609.3 301 585 301C560.7 301 536.3 301 511.8 301C487.3 301 462.7 301 438.2 301C413.7 301 389.3 301 365 301C340.7 301 316.3 301 292 301C267.7 301 243.3 301 219 301C194.7 301 170.3 301 146 301C121.7 301 97.3 301 73 301C48.7 301 24.3 301 12.2 301L0 301Z" fill="#00396e"></path><path d="M0 283L12.2 283C24.3 283 48.7 283 73 268.8C97.3 254.7 121.7 226.3 146 216.7C170.3 207 194.7 216 219 220.2C243.3 224.3 267.7 223.7 292 226.3C316.3 229 340.7 235 365 231C389.3 227 413.7 213 438.2 208.8C462.7 204.7 487.3 210.3 511.8 221.2C536.3 232 560.7 248 585 247.2C609.3 246.3 633.7 228.7 658 231.3C682.3 234 706.7 257 731 258.5C755.3 260 779.7 240 804 235.5C828.3 231 852.7 242 877 237.8C901.3 233.7 925.7 214.3 937.8 204.7L950 195L950 301L937.8 301C925.7 301 901.3 301 877 301C852.7 301 828.3 301 804 301C779.7 301 755.3 301 731 301C706.7 301 682.3 301 658 301C633.7 301 609.3 301 585 301C560.7 301 536.3 301 511.8 301C487.3 301 462.7 301 438.2 301C413.7 301 389.3 301 365 301C340.7 301 316.3 301 292 301C267.7 301 243.3 301 219 301C194.7 301 170.3 301 146 301C121.7 301 97.3 301 73 301C48.7 301 24.3 301 12.2 301L0 301Z" fill="#0165a0"></path><path d="M0 264L12.2 259.2C24.3 254.3 48.7 244.7 73 241.3C97.3 238 121.7 241 146 248.2C170.3 255.3 194.7 266.7 219 261.2C243.3 255.7 267.7 233.3 292 222.2C316.3 211 340.7 211 365 214.7C389.3 218.3 413.7 225.7 438.2 235.2C462.7 244.7 487.3 256.3 511.8 260.8C536.3 265.3 560.7 262.7 585 266.3C609.3 270 633.7 280 658 272.7C682.3 265.3 706.7 240.7 731 230.5C755.3 220.3 779.7 224.7 804 229.2C828.3 233.7 852.7 238.3 877 245.8C901.3 253.3 925.7 263.7 937.8 268.8L950 274L950 301L937.8 301C925.7 301 901.3 301 877 301C852.7 301 828.3 301 804 301C779.7 301 755.3 301 731 301C706.7 301 682.3 301 658 301C633.7 301 609.3 301 585 301C560.7 301 536.3 301 511.8 301C487.3 301 462.7 301 438.2 301C413.7 301 389.3 301 365 301C340.7 301 316.3 301 292 301C267.7 301 243.3 301 219 301C194.7 301 170.3 301 146 301C121.7 301 97.3 301 73 301C48.7 301 24.3 301 12.2 301L0 301Z" fill="#0096d1"></path><path d="M0 279L12.2 281.2C24.3 283.3 48.7 287.7 73 287.2C97.3 286.7 121.7 281.3 146 278.8C170.3 276.3 194.7 276.7 219 276C243.3 275.3 267.7 273.7 292 270.8C316.3 268 340.7 264 365 261.3C389.3 258.7 413.7 257.3 438.2 253.8C462.7 250.3 487.3 244.7 511.8 246C536.3 247.3 560.7 255.7 585 258.3C609.3 261 633.7 258 658 263.5C682.3 269 706.7 283 731 281.2C755.3 279.3 779.7 261.7 804 254.2C828.3 246.7 852.7 249.3 877 251.8C901.3 254.3 925.7 256.7 937.8 257.8L950 259L950 301L937.8 301C925.7 301 901.3 301 877 301C852.7 301 828.3 301 804 301C779.7 301 755.3 301 731 301C706.7 301 682.3 301 658 301C633.7 301 609.3 301 585 301C560.7 301 536.3 301 511.8 301C487.3 301 462.7 301 438.2 301C413.7 301 389.3 301 365 301C340.7 301 316.3 301 292 301C267.7 301 243.3 301 219 301C194.7 301 170.3 301 146 301C121.7 301 97.3 301 73 301C48.7 301 24.3 301 12.2 301L0 301Z" fill="#00c9ff"></path></svg>