<svg id="visual" viewBox="0 0 950 300" width="950" height="300" xmlns="http://www.w3.org/2000/svg" xmlns:xlink="http://www.w3.org/1999/xlink" version="1.1"><rect x="0" y="0" width="950" height="300" fill="#001220"></rect><path d="M0 110L12.2 105.2C24.3 100.3 48.7 90.7 73 82.2C97.3 73.7 121.7 66.3 146 68.3C170.3 70.3 194.7 81.7 219 92.3C243.3 103 267.7 113 292 104C316.3 95 340.7 67 365 60.2C389.3 53.3 413.7 67.7 438.2 79C462.7 90.3 487.3 98.7 511.8 104.3C536.3 110 560.7 113 585 105.8C609.3 98.7 633.7 81.3 658 67.5C682.3 53.7 706.7 43.3 731 49.7C755.3 56 779.7 79 804 93.8C828.3 108.7 852.7 115.3 877 116.5C901.3 117.7 925.7 113.3 937.8 111.2L950 109L950 0L937.8 0C925.7 0 901.3 0 877 0C852.7 0 828.3 0 804 0C779.7 0 755.3 0 731 0C706.7 0 682.3 0 658 0C633.7 0 609.3 0 585 0C560.7 0 536.3 0 511.8 0C487.3 0 462.7 0 438.2 0C413.7 0 389.3 0 365 0C340.7 0 316.3 0 292 0C267.7 0 243.3 0 219 0C194.7 0 170.3 0 146 0C121.7 0 97.3 0 73 0C48.7 0 24.3 0 12.2 0L0 0Z" fill="#00396e"></path><path d="M0 52L12.2 50.2C24.3 48.3 48.7 44.7 73 53.5C97.3 62.3 121.7 83.7 146 87.8C170.3 92 194.7 79 219 75.7C243.3 72.3 267.7 78.7 292 86.3C316.3 94 340.7 103 365 92C389.3 81 413.7 50 438.2 45.2C462.7 40.3 487.3 61.7 511.8 60.3C536.3 59 560.7 35 585 28.7C609.3 22.3 633.7 33.7 658 40.8C682.3 48 706.7 51 731 47C755.3 43 779.7 32 804 40.2C828.3 48.3 852.7 75.7 877 78.5C901.3 81.3 925.7 59.7 937.8 48.8L950 38L950 0L937.8 0C925.7 0 901.3 0 877 0C852.7 0 828.3 0 804 0C779.7 0 755.3 0 731 0C706.7 0 682.3 0 658 0C633.7 0 609.3 0 585 0C560.7 0 536.3 0 511.8 0C487.3 0 462.7 0 438.2 0C413.7 0 389.3 0 365 0C340.7 0 316.3 0 292 0C267.7 0 243.3 0 219 0C194.7 0 170.3 0 146 0C121.7 0 97.3 0 73 0C48.7 0 24.3 0 12.2 0L0 0Z" fill="#0165a0"></path><path d="M0 52L12.2 45.3C24.3 38.7 48.7 25.3 73 29.8C97.3 34.3 121.7 56.7 146 59C170.3 61.3 194.7 43.7 219 35C243.3 26.3 267.7 26.7 292 31.7C316.3 36.7 340.7 46.3 365 54.7C389.3 63 413.7 70 438.2 73C462.7 76 487.3 75 511.8 69.2C536.3 63.3 560.7 52.7 585 52.3C609.3 52 633.7 62 658 69.8C682.3 77.7 706.7 83.3 731 74.5C755.3 65.7 779.7 42.3 804 31.8C828.3 21.3 852.7 23.7 877 25.8C901.3 28 925.7 30 937.8 31L950 32L950 0L937.8 0C925.7 0 901.3 0 877 0C852.7 0 828.3 0 804 0C779.7 0 755.3 0 731 0C706.7 0 682.3 0 658 0C633.7 0 609.3 0 585 0C560.7 0 536.3 0 511.8 0C487.3 0 462.7 0 438.2 0C413.7 0 389.3 0 365 0C340.7 0 316.3 0 292 0C267.7 0 243.3 0 219 0C194.7 0 170.3 0 146 0C121.7 0 97.3 0 73 0C48.7 0 24.3 0 12.2 0L0 0Z" fill="#0096d1"></path><path d="M0 58L12.2 56.8C24.3 55.7 48.7 53.3 73 51.7C97.3 50 121.7 49 146 49C170.3 49 194.7 50 219 43.2C243.3 36.3 267.7 21.7 292 15.7C316.3 9.7 340.7 12.3 365 19C389.3 25.7 413.7 36.3 438.2 38C462.7 39.7 487.3 32.3 511.8 25.3C536.3 18.3 560.7 11.7 585 11.5C609.3 11.3 633.7 17.7 658 21.7C682.3 25.7 706.7 27.3 731 26.2C755.3 25 779.7 21 804 25C828.3 29 852.7 41 877 44C901.3 47 925.7 41 937.8 38L950 35L950 0L937.8 0C925.7 0 901.3 0 877 0C852.7 0 828.3 0 804 0C779.7 0 755.3 0 731 0C706.7 0 682.3 0 658 0C633.7 0 609.3 0 585 0C560.7 0 536.3 0 511.8 0C487.3 0 462.7 0 438.2 0C413.7 0 389.3 0 365 0C340.7 0 316.3 0 292 0C267.7 0 243.3 0 219 0C194.7 0 170.3 0 146 0C121.7 0 97.3 0 73 0C48.7 0 24.3 0 12.2 0L0 0Z" fill="#00c9ff"></path></svg>