<svg id="visual" viewBox="0 0 900 600" width="900" height="600" xmlns="http://www.w3.org/2000/svg" xmlns:xlink="http://www.w3.org/1999/xlink" version="1.1"><rect x="0" y="0" width="900" height="600" fill="#001220"></rect><path d="M0 173L10.7 167.2C21.3 161.3 42.7 149.7 64.2 142.7C85.7 135.7 107.3 133.3 128.8 139.3C150.3 145.3 171.7 159.7 193 163C214.3 166.3 235.7 158.7 257 156.2C278.3 153.7 299.7 156.3 321.2 147.3C342.7 138.3 364.3 117.7 385.8 116.2C407.3 114.7 428.7 132.3 450 139.8C471.3 147.3 492.7 144.7 514.2 140C535.7 135.3 557.3 128.7 578.8 133.7C600.3 138.7 621.7 155.3 643 160C664.3 164.7 685.7 157.3 707 153.7C728.3 150 749.7 150 771.2 142.5C792.7 135 814.3 120 835.8 112.5C857.3 105 878.7 105 889.3 105L900 105L900 0L889.3 0C878.7 0 857.3 0 835.8 0C814.3 0 792.7 0 771.2 0C749.7 0 728.3 0 707 0C685.7 0 664.3 0 643 0C621.7 0 600.3 0 578.8 0C557.3 0 535.7 0 514.2 0C492.7 0 471.3 0 450 0C428.7 0 407.3 0 385.8 0C364.3 0 342.7 0 321.2 0C299.7 0 278.3 0 257 0C235.7 0 214.3 0 193 0C171.7 0 150.3 0 128.8 0C107.3 0 85.7 0 64.2 0C42.7 0 21.3 0 10.7 0L0 0Z" fill="#00396e"></path><path d="M0 98L10.7 100.8C21.3 103.7 42.7 109.3 64.2 107.2C85.7 105 107.3 95 128.8 89.8C150.3 84.7 171.7 84.3 193 93.3C214.3 102.3 235.7 120.7 257 127.5C278.3 134.3 299.7 129.7 321.2 121.7C342.7 113.7 364.3 102.3 385.8 102.3C407.3 102.3 428.7 113.7 450 115.5C471.3 117.3 492.7 109.7 514.2 106C535.7 102.3 557.3 102.7 578.8 101.5C600.3 100.3 621.7 97.7 643 100.8C664.3 104 685.7 113 707 116.5C728.3 120 749.7 118 771.2 115.3C792.7 112.7 814.3 109.3 835.8 104C857.3 98.7 878.7 91.3 889.3 87.7L900 84L900 0L889.3 0C878.7 0 857.3 0 835.8 0C814.3 0 792.7 0 771.2 0C749.7 0 728.3 0 707 0C685.7 0 664.3 0 643 0C621.7 0 600.3 0 578.8 0C557.3 0 535.7 0 514.2 0C492.7 0 471.3 0 450 0C428.7 0 407.3 0 385.8 0C364.3 0 342.7 0 321.2 0C299.7 0 278.3 0 257 0C235.7 0 214.3 0 193 0C171.7 0 150.3 0 128.8 0C107.3 0 85.7 0 64.2 0C42.7 0 21.3 0 10.7 0L0 0Z" fill="#0165a0"></path><path d="M0 85L10.7 81C21.3 77 42.7 69 64.2 68.7C85.7 68.3 107.3 75.7 128.8 76.8C150.3 78 171.7 73 193 74.2C214.3 75.3 235.7 82.7 257 84.8C278.3 87 299.7 84 321.2 83.3C342.7 82.7 364.3 84.3 385.8 87.3C407.3 90.3 428.7 94.7 450 96.2C471.3 97.7 492.7 96.3 514.2 94.3C535.7 92.3 557.3 89.7 578.8 90C600.3 90.3 621.7 93.7 643 95C664.3 96.3 685.7 95.7 707 96.3C728.3 97 749.7 99 771.2 92.7C792.7 86.3 814.3 71.7 835.8 68.3C857.3 65 878.7 73 889.3 77L900 81L900 0L889.3 0C878.7 0 857.3 0 835.8 0C814.3 0 792.7 0 771.2 0C749.7 0 728.3 0 707 0C685.7 0 664.3 0 643 0C621.7 0 600.3 0 578.8 0C557.3 0 535.7 0 514.2 0C492.7 0 471.3 0 450 0C428.7 0 407.3 0 385.8 0C364.3 0 342.7 0 321.2 0C299.7 0 278.3 0 257 0C235.7 0 214.3 0 193 0C171.7 0 150.3 0 128.8 0C107.3 0 85.7 0 64.2 0C42.7 0 21.3 0 10.7 0L0 0Z" fill="#0096d1"></path><path d="M0 44L10.7 44.7C21.3 45.3 42.7 46.7 64.2 46.8C85.7 47 107.3 46 128.8 43C150.3 40 171.7 35 193 33.2C214.3 31.3 235.7 32.7 257 32.5C278.3 32.3 299.7 30.7 321.2 32C342.7 33.3 364.3 37.7 385.8 40.8C407.3 44 428.7 46 450 45.5C471.3 45 492.7 42 514.2 40.7C535.7 39.3 557.3 39.7 578.8 42C600.3 44.3 621.7 48.7 643 46.7C664.3 44.7 685.7 36.3 707 38.2C728.3 40 749.7 52 771.2 54C792.7 56 814.3 48 835.8 47C857.3 46 878.7 52 889.3 55L900 58L900 0L889.3 0C878.7 0 857.3 0 835.8 0C814.3 0 792.7 0 771.2 0C749.7 0 728.3 0 707 0C685.7 0 664.3 0 643 0C621.7 0 600.3 0 578.8 0C557.3 0 535.7 0 514.2 0C492.7 0 471.3 0 450 0C428.7 0 407.3 0 385.8 0C364.3 0 342.7 0 321.2 0C299.7 0 278.3 0 257 0C235.7 0 214.3 0 193 0C171.7 0 150.3 0 128.8 0C107.3 0 85.7 0 64.2 0C42.7 0 21.3 0 10.7 0L0 0Z" fill="#00c9ff"></path></svg>