<svg id="visual" viewBox="0 0 900 600" width="900" height="600" xmlns="http://www.w3.org/2000/svg" xmlns:xlink="http://www.w3.org/1999/xlink" version="1.1"><rect x="0" y="0" width="900" height="600" fill="#001220"></rect><path d="M0 464L10.7 464C21.3 464 42.7 464 64.2 458.5C85.7 453 107.3 442 128.8 441.2C150.3 440.3 171.7 449.7 193 452.3C214.3 455 235.7 451 257 447.2C278.3 443.3 299.7 439.7 321.2 442.2C342.7 444.7 364.3 453.3 385.8 461.2C407.3 469 428.7 476 450 470.2C471.3 464.3 492.7 445.7 514.2 447C535.7 448.3 557.3 469.7 578.8 474.8C600.3 480 621.7 469 643 463.2C664.3 457.3 685.7 456.7 707 455.2C728.3 453.7 749.7 451.3 771.2 455.8C792.7 460.3 814.3 471.7 835.8 477.5C857.3 483.3 878.7 483.7 889.3 483.8L900 484L900 601L889.3 601C878.7 601 857.3 601 835.8 601C814.3 601 792.7 601 771.2 601C749.7 601 728.3 601 707 601C685.7 601 664.3 601 643 601C621.7 601 600.3 601 578.8 601C557.3 601 535.7 601 514.2 601C492.7 601 471.3 601 450 601C428.7 601 407.3 601 385.8 601C364.3 601 342.7 601 321.2 601C299.7 601 278.3 601 257 601C235.7 601 214.3 601 193 601C171.7 601 150.3 601 128.8 601C107.3 601 85.7 601 64.2 601C42.7 601 21.3 601 10.7 601L0 601Z" fill="#00396e"></path><path d="M0 473L10.7 481C21.3 489 42.7 505 64.2 510.5C85.7 516 107.3 511 128.8 504C150.3 497 171.7 488 193 481.2C214.3 474.3 235.7 469.7 257 469C278.3 468.3 299.7 471.7 321.2 480C342.7 488.3 364.3 501.7 385.8 501.8C407.3 502 428.7 489 450 485.3C471.3 481.7 492.7 487.3 514.2 493C535.7 498.7 557.3 504.3 578.8 507.5C600.3 510.7 621.7 511.3 643 513.2C664.3 515 685.7 518 707 509.5C728.3 501 749.7 481 771.2 471.2C792.7 461.3 814.3 461.7 835.8 472.2C857.3 482.7 878.7 503.3 889.3 513.7L900 524L900 601L889.3 601C878.7 601 857.3 601 835.8 601C814.3 601 792.7 601 771.2 601C749.7 601 728.3 601 707 601C685.7 601 664.3 601 643 601C621.7 601 600.3 601 578.8 601C557.3 601 535.7 601 514.2 601C492.7 601 471.3 601 450 601C428.7 601 407.3 601 385.8 601C364.3 601 342.7 601 321.2 601C299.7 601 278.3 601 257 601C235.7 601 214.3 601 193 601C171.7 601 150.3 601 128.8 601C107.3 601 85.7 601 64.2 601C42.7 601 21.3 601 10.7 601L0 601Z" fill="#0165a0"></path><path d="M0 536L10.7 536.5C21.3 537 42.7 538 64.2 538.5C85.7 539 107.3 539 128.8 539.3C150.3 539.7 171.7 540.3 193 533.7C214.3 527 235.7 513 257 510.2C278.3 507.3 299.7 515.7 321.2 515.7C342.7 515.7 364.3 507.3 385.8 506.5C407.3 505.7 428.7 512.3 450 512C471.3 511.7 492.7 504.3 514.2 501.2C535.7 498 557.3 499 578.8 502.7C600.3 506.3 621.7 512.7 643 520.2C664.3 527.7 685.7 536.3 707 537C728.3 537.7 749.7 530.3 771.2 524.8C792.7 519.3 814.3 515.7 835.8 512.7C857.3 509.7 878.7 507.3 889.3 506.2L900 505L900 601L889.3 601C878.7 601 857.3 601 835.8 601C814.3 601 792.7 601 771.2 601C749.7 601 728.3 601 707 601C685.7 601 664.3 601 643 601C621.7 601 600.3 601 578.8 601C557.3 601 535.7 601 514.2 601C492.7 601 471.3 601 450 601C428.7 601 407.3 601 385.8 601C364.3 601 342.7 601 321.2 601C299.7 601 278.3 601 257 601C235.7 601 214.3 601 193 601C171.7 601 150.3 601 128.8 601C107.3 601 85.7 601 64.2 601C42.7 601 21.3 601 10.7 601L0 601Z" fill="#0096d1"></path><path d="M0 567L10.7 564.7C21.3 562.3 42.7 557.7 64.2 555.2C85.7 552.7 107.3 552.3 128.8 552C150.3 551.7 171.7 551.3 193 548.5C214.3 545.7 235.7 540.3 257 539.7C278.3 539 299.7 543 321.2 548.7C342.7 554.3 364.3 561.7 385.8 565.3C407.3 569 428.7 569 450 567.8C471.3 566.7 492.7 564.3 514.2 559.2C535.7 554 557.3 546 578.8 544.7C600.3 543.3 621.7 548.7 643 551C664.3 553.3 685.7 552.7 707 552C728.3 551.3 749.7 550.7 771.2 547.8C792.7 545 814.3 540 835.8 541.3C857.3 542.7 878.7 550.3 889.3 554.2L900 558L900 601L889.3 601C878.7 601 857.3 601 835.8 601C814.3 601 792.7 601 771.2 601C749.7 601 728.3 601 707 601C685.7 601 664.3 601 643 601C621.7 601 600.3 601 578.8 601C557.3 601 535.7 601 514.2 601C492.7 601 471.3 601 450 601C428.7 601 407.3 601 385.8 601C364.3 601 342.7 601 321.2 601C299.7 601 278.3 601 257 601C235.7 601 214.3 601 193 601C171.7 601 150.3 601 128.8 601C107.3 601 85.7 601 64.2 601C42.7 601 21.3 601 10.7 601L0 601Z" fill="#00c9ff"></path></svg>