<svg id="visual" viewBox="0 0 950 300" width="900" height="600" xmlns="http://www.w3.org/2000/svg" xmlns:xlink="http://www.w3.org/1999/xlink" version="1.1"><rect x="0" y="0" width="900" height="600" fill="#001220"></rect><path d="M0 143L12.5 152.2C25 161.3 50 179.7 75 200.5C100 221.3 125 244.7 150 224.8C175 205 200 142 225 137.5C250 133 275 187 300 204.2C325 221.3 350 201.7 375 202.3C400 203 425 224 450 228.3C475 232.7 500 220.3 525 200C550 179.7 575 151.3 600 145.7C625 140 650 157 675 160C700 163 725 152 750 167.2C775 182.3 800 223.7 825 225.7C850 227.7 875 190.3 887.5 171.7L900 153L900 0L887.5 0C875 0 850 0 825 0C800 0 775 0 750 0C725 0 700 0 675 0C650 0 625 0 600 0C575 0 550 0 525 0C500 0 475 0 450 0C425 0 400 0 375 0C350 0 325 0 300 0C275 0 250 0 225 0C200 0 175 0 150 0C125 0 100 0 75 0C50 0 25 0 12.5 0L0 0Z" fill="#00396e"></path><path d="M0 45L12.5 62.3C25 79.7 50 114.3 75 143.8C100 173.3 125 197.7 150 181.3C175 165 200 108 225 104.2C250 100.3 275 149.7 300 167.2C325 184.7 350 170.3 375 150.8C400 131.3 425 106.7 450 116.5C475 126.3 500 170.7 525 186.3C550 202 575 189 600 173.8C625 158.7 650 141.3 675 119.2C700 97 725 70 750 83.7C775 97.3 800 151.7 825 169.8C850 188 875 170 887.5 161L900 152L900 0L887.5 0C875 0 850 0 825 0C800 0 775 0 750 0C725 0 700 0 675 0C650 0 625 0 600 0C575 0 550 0 525 0C500 0 475 0 450 0C425 0 400 0 375 0C350 0 325 0 300 0C275 0 250 0 225 0C200 0 175 0 150 0C125 0 100 0 75 0C50 0 25 0 12.5 0L0 0Z" fill="#0165a0"></path><path d="M0 124L12.5 109C25 94 50 64 75 61.2C100 58.3 125 82.7 150 94.3C175 106 200 105 225 95.8C250 86.7 275 69.3 300 77.3C325 85.3 350 118.7 375 139C400 159.3 425 166.7 450 152C475 137.3 500 100.7 525 91.8C550 83 575 102 600 95.3C625 88.7 650 56.3 675 65.3C700 74.3 725 124.7 750 145C775 165.3 800 155.7 825 132.8C850 110 875 74 887.5 56L900 38L900 0L887.5 0C875 0 850 0 825 0C800 0 775 0 750 0C725 0 700 0 675 0C650 0 625 0 600 0C575 0 550 0 525 0C500 0 475 0 450 0C425 0 400 0 375 0C350 0 325 0 300 0C275 0 250 0 225 0C200 0 175 0 150 0C125 0 100 0 75 0C50 0 25 0 12.5 0L0 0Z" fill="#0096d1"></path><path d="M0 111L12.5 96.5C25 82 50 53 75 54.2C100 55.3 125 86.7 150 90.2C175 93.7 200 69.3 225 65.7C250 62 275 79 300 90.2C325 101.3 350 106.7 375 97.5C400 88.3 425 64.7 450 49.2C475 33.7 500 26.3 525 37C550 47.7 575 76.3 600 89C625 101.7 650 98.3 675 97.7C700 97 725 99 750 85.5C775 72 800 43 825 33.5C850 24 875 34 887.5 39L900 44L900 0L887.5 0C875 0 850 0 825 0C800 0 775 0 750 0C725 0 700 0 675 0C650 0 625 0 600 0C575 0 550 0 525 0C500 0 475 0 450 0C425 0 400 0 375 0C350 0 325 0 300 0C275 0 250 0 225 0C200 0 175 0 150 0C125 0 100 0 75 0C50 0 25 0 12.5 0L0 0Z" fill="#00c9ff"></path></svg>