<svg id="visual" viewBox="0 0 900 600" width="900" height="600" xmlns="http://www.w3.org/2000/svg" xmlns:xlink="http://www.w3.org/1999/xlink" version="1.1"><rect x="0" y="0" width="900" height="600" fill="#001220"></rect><path d="M0 134L10.7 134C21.3 134 42.7 134 64.2 139.5C85.7 145 107.3 156 128.8 156.8C150.3 157.7 171.7 148.3 193 145.7C214.3 143 235.7 147 257 150.8C278.3 154.7 299.7 158.3 321.2 155.8C342.7 153.3 364.3 144.7 385.8 136.8C407.3 129 428.7 122 450 127.8C471.3 133.7 492.7 152.3 514.2 151C535.7 149.7 557.3 128.3 578.8 123.2C600.3 118 621.7 129 643 134.8C664.3 140.7 685.7 141.3 707 142.8C728.3 144.3 749.7 146.7 771.2 142.2C792.7 137.7 814.3 126.3 835.8 120.5C857.3 114.7 878.7 114.3 889.3 114.2L900 114L900 0L889.3 0C878.7 0 857.3 0 835.8 0C814.3 0 792.7 0 771.2 0C749.7 0 728.3 0 707 0C685.7 0 664.3 0 643 0C621.7 0 600.3 0 578.8 0C557.3 0 535.7 0 514.2 0C492.7 0 471.3 0 450 0C428.7 0 407.3 0 385.8 0C364.3 0 342.7 0 321.2 0C299.7 0 278.3 0 257 0C235.7 0 214.3 0 193 0C171.7 0 150.3 0 128.8 0C107.3 0 85.7 0 64.2 0C42.7 0 21.3 0 10.7 0L0 0Z" fill="#00396e"></path><path d="M0 125L10.7 117C21.3 109 42.7 93 64.2 87.5C85.7 82 107.3 87 128.8 94C150.3 101 171.7 110 193 116.8C214.3 123.7 235.7 128.3 257 129C278.3 129.7 299.7 126.3 321.2 118C342.7 109.7 364.3 96.3 385.8 96.2C407.3 96 428.7 109 450 112.7C471.3 116.3 492.7 110.7 514.2 105C535.7 99.3 557.3 93.7 578.8 90.5C600.3 87.3 621.7 86.7 643 84.8C664.3 83 685.7 80 707 88.5C728.3 97 749.7 117 771.2 126.8C792.7 136.7 814.3 136.3 835.8 125.8C857.3 115.3 878.7 94.7 889.3 84.3L900 74L900 0L889.3 0C878.7 0 857.3 0 835.8 0C814.3 0 792.7 0 771.2 0C749.7 0 728.3 0 707 0C685.7 0 664.3 0 643 0C621.7 0 600.3 0 578.8 0C557.3 0 535.7 0 514.2 0C492.7 0 471.3 0 450 0C428.7 0 407.3 0 385.8 0C364.3 0 342.7 0 321.2 0C299.7 0 278.3 0 257 0C235.7 0 214.3 0 193 0C171.7 0 150.3 0 128.8 0C107.3 0 85.7 0 64.2 0C42.7 0 21.3 0 10.7 0L0 0Z" fill="#0165a0"></path><path d="M0 62L10.7 61.5C21.3 61 42.7 60 64.2 59.5C85.7 59 107.3 59 128.8 58.7C150.3 58.3 171.7 57.7 193 64.3C214.3 71 235.7 85 257 87.8C278.3 90.7 299.7 82.3 321.2 82.3C342.7 82.3 364.3 90.7 385.8 91.5C407.3 92.3 428.7 85.7 450 86C471.3 86.3 492.7 93.7 514.2 96.8C535.7 100 557.3 99 578.8 95.3C600.3 91.7 621.7 85.3 643 77.8C664.3 70.3 685.7 61.7 707 61C728.3 60.3 749.7 67.7 771.2 73.2C792.7 78.7 814.3 82.3 835.8 85.3C857.3 88.3 878.7 90.7 889.3 91.8L900 93L900 0L889.3 0C878.7 0 857.3 0 835.8 0C814.3 0 792.7 0 771.2 0C749.7 0 728.3 0 707 0C685.7 0 664.3 0 643 0C621.7 0 600.3 0 578.8 0C557.3 0 535.7 0 514.2 0C492.7 0 471.3 0 450 0C428.7 0 407.3 0 385.8 0C364.3 0 342.7 0 321.2 0C299.7 0 278.3 0 257 0C235.7 0 214.3 0 193 0C171.7 0 150.3 0 128.8 0C107.3 0 85.7 0 64.2 0C42.7 0 21.3 0 10.7 0L0 0Z" fill="#0096d1"></path><path d="M0 31L10.7 33.3C21.3 35.7 42.7 40.3 64.2 42.8C85.7 45.3 107.3 45.7 128.8 46C150.3 46.3 171.7 46.7 193 49.5C214.3 52.3 235.7 57.7 257 58.3C278.3 59 299.7 55 321.2 49.3C342.7 43.7 364.3 36.3 385.8 32.7C407.3 29 428.7 29 450 30.2C471.3 31.3 492.7 33.7 514.2 38.8C535.7 44 557.3 52 578.8 53.3C600.3 54.7 621.7 49.3 643 47C664.3 44.7 685.7 45.3 707 46C728.3 46.7 749.7 47.3 771.2 50.2C792.7 53 814.3 58 835.8 56.7C857.3 55.3 878.7 47.7 889.3 43.8L900 40L900 0L889.3 0C878.7 0 857.3 0 835.8 0C814.3 0 792.7 0 771.2 0C749.7 0 728.3 0 707 0C685.7 0 664.3 0 643 0C621.7 0 600.3 0 578.8 0C557.3 0 535.7 0 514.2 0C492.7 0 471.3 0 450 0C428.7 0 407.3 0 385.8 0C364.3 0 342.7 0 321.2 0C299.7 0 278.3 0 257 0C235.7 0 214.3 0 193 0C171.7 0 150.3 0 128.8 0C107.3 0 85.7 0 64.2 0C42.7 0 21.3 0 10.7 0L0 0Z" fill="#00c9ff"></path></svg>