<svg id="visual" viewBox="0 0 950 300" width="950" height="300" xmlns="http://www.w3.org/2000/svg" xmlns:xlink="http://www.w3.org/1999/xlink" version="1.1"><rect x="0" y="0" width="950" height="300" fill="#00141a"></rect><defs><linearGradient id="grad1_0" x1="68.4%" y1="0%" x2="100%" y2="100%"><stop offset="-13.333333333333329%" stop-color="#00141a" stop-opacity="1"></stop><stop offset="113.33333333333334%" stop-color="#00141a" stop-opacity="1"></stop></linearGradient></defs><defs><linearGradient id="grad2_0" x1="0%" y1="0%" x2="31.6%" y2="100%"><stop offset="-13.333333333333329%" stop-color="#00141a" stop-opacity="1"></stop><stop offset="113.33333333333334%" stop-color="#00141a" stop-opacity="1"></stop></linearGradient></defs><g transform="translate(950, 0)"><path d="M0 270C-29.2 253.5 -58.4 237.1 -94.1 227.3C-129.9 217.5 -172.1 214.3 -190.9 190.9C-209.7 167.5 -205.1 124 -214.3 88.8C-223.6 53.6 -246.8 26.8 -270 0L0 0Z" fill="#8300ff"></path></g><g transform="translate(0, 300)"><path d="M0 -270C22.8 -238.6 45.6 -207.2 82.7 -199.6C119.7 -191.9 171.1 -208.1 190.9 -190.9C210.7 -173.7 199 -123.1 206.9 -85.7C214.9 -48.3 242.4 -24.2 270 0L0 0Z" fill="#8300ff"></path></g></svg>